<?xml version="1.0" encoding="utf-8" standalone="no"?>
<!DOCTYPE svg PUBLIC "-//W3C//DTD SVG 1.1//EN"
  "http://www.w3.org/Graphics/SVG/1.1/DTD/svg11.dtd">
<!-- Created with matplotlib (http://matplotlib.org/) -->
<svg height="216pt" version="1.1" viewBox="0 0 360 216" width="360pt" xmlns="http://www.w3.org/2000/svg" xmlns:xlink="http://www.w3.org/1999/xlink">
 <defs>
  <style type="text/css">
*{stroke-linecap:butt;stroke-linejoin:round;}
  </style>
 </defs>
 <g id="figure_1">
  <g id="patch_1">
   <path d="M 0 216 
L 360 216 
L 360 0 
L 0 0 
z
" style="fill:none;"/>
  </g>
  <g id="axes_1">
   <g id="patch_2">
    <path d="M 64.8 172.8 
L 262.8 172.8 
L 262.8 32.4 
L 64.8 32.4 
z
" style="fill:none;"/>
   </g>
   <g id="matplotlib.axis_1">
    <g id="xtick_1">
     <g id="line2d_1">
      <defs>
       <path d="M 0 0 
L 0 2 
" id="md76ca9d7f7" style="stroke:#000000;stroke-width:0.8;"/>
      </defs>
      <g>
       <use style="stroke:#000000;stroke-width:0.8;" x="106.6" xlink:href="#md76ca9d7f7" y="192.8"/>
      </g>
     </g>
     <g id="text_1">
      <!-- 2 -->
      <defs>
       <path d="M 19.1875 8.296875 
L 53.609375 8.296875 
L 53.609375 0 
L 7.328125 0 
L 7.328125 8.296875 
Q 12.9375 14.109375 22.625 23.890625 
Q 32.328125 33.6875 34.8125 36.53125 
Q 39.546875 41.84375 41.421875 45.53125 
Q 43.3125 49.21875 43.3125 52.78125 
Q 43.3125 58.59375 39.234375 62.25 
Q 35.15625 65.921875 28.609375 65.921875 
Q 23.96875 65.921875 18.8125 64.3125 
Q 13.671875 62.703125 7.8125 59.421875 
L 7.8125 69.390625 
Q 13.765625 71.78125 18.9375 73 
Q 24.125 74.21875 28.421875 74.21875 
Q 39.75 74.21875 46.484375 68.546875 
Q 53.21875 62.890625 53.21875 53.421875 
Q 53.21875 48.921875 51.53125 44.890625 
Q 49.859375 40.875 45.40625 35.40625 
Q 44.1875 33.984375 37.640625 27.21875 
Q 31.109375 20.453125 19.1875 8.296875 
z
" id="DejaVuSans-32"/>
      </defs>
      <g transform="translate(104.055 204.37875)scale(0.08 -0.08)">
       <use xlink:href="#DejaVuSans-32"/>
      </g>
     </g>
    </g>
    <g id="xtick_2">
     <g id="line2d_2">
      <g>
       <use style="stroke:#000000;stroke-width:0.8;" x="150.6" xlink:href="#md76ca9d7f7" y="192.8"/>
      </g>
     </g>
     <g id="text_2">
      <!-- 4 -->
      <defs>
       <path d="M 37.796875 64.3125 
L 12.890625 25.390625 
L 37.796875 25.390625 
z
M 35.203125 72.90625 
L 47.609375 72.90625 
L 47.609375 25.390625 
L 58.015625 25.390625 
L 58.015625 17.1875 
L 47.609375 17.1875 
L 47.609375 0 
L 37.796875 0 
L 37.796875 17.1875 
L 4.890625 17.1875 
L 4.890625 26.703125 
z
" id="DejaVuSans-34"/>
      </defs>
      <g transform="translate(148.055 204.37875)scale(0.08 -0.08)">
       <use xlink:href="#DejaVuSans-34"/>
      </g>
     </g>
    </g>
    <g id="xtick_3">
     <g id="line2d_3">
      <g>
       <use style="stroke:#000000;stroke-width:0.8;" x="194.6" xlink:href="#md76ca9d7f7" y="192.8"/>
      </g>
     </g>
     <g id="text_3">
      <!-- 6 -->
      <defs>
       <path d="M 33.015625 40.375 
Q 26.375 40.375 22.484375 35.828125 
Q 18.609375 31.296875 18.609375 23.390625 
Q 18.609375 15.53125 22.484375 10.953125 
Q 26.375 6.390625 33.015625 6.390625 
Q 39.65625 6.390625 43.53125 10.953125 
Q 47.40625 15.53125 47.40625 23.390625 
Q 47.40625 31.296875 43.53125 35.828125 
Q 39.65625 40.375 33.015625 40.375 
z
M 52.59375 71.296875 
L 52.59375 62.3125 
Q 48.875 64.0625 45.09375 64.984375 
Q 41.3125 65.921875 37.59375 65.921875 
Q 27.828125 65.921875 22.671875 59.328125 
Q 17.53125 52.734375 16.796875 39.40625 
Q 19.671875 43.65625 24.015625 45.921875 
Q 28.375 48.1875 33.59375 48.1875 
Q 44.578125 48.1875 50.953125 41.515625 
Q 57.328125 34.859375 57.328125 23.390625 
Q 57.328125 12.15625 50.6875 5.359375 
Q 44.046875 -1.421875 33.015625 -1.421875 
Q 20.359375 -1.421875 13.671875 8.265625 
Q 6.984375 17.96875 6.984375 36.375 
Q 6.984375 53.65625 15.1875 63.9375 
Q 23.390625 74.21875 37.203125 74.21875 
Q 40.921875 74.21875 44.703125 73.484375 
Q 48.484375 72.75 52.59375 71.296875 
z
" id="DejaVuSans-36"/>
      </defs>
      <g transform="translate(192.055 204.37875)scale(0.08 -0.08)">
       <use xlink:href="#DejaVuSans-36"/>
      </g>
     </g>
    </g>
    <g id="xtick_4">
     <g id="line2d_4">
      <g>
       <use style="stroke:#000000;stroke-width:0.8;" x="238.6" xlink:href="#md76ca9d7f7" y="192.8"/>
      </g>
     </g>
     <g id="text_4">
      <!-- 8 -->
      <defs>
       <path d="M 31.78125 34.625 
Q 24.75 34.625 20.71875 30.859375 
Q 16.703125 27.09375 16.703125 20.515625 
Q 16.703125 13.921875 20.71875 10.15625 
Q 24.75 6.390625 31.78125 6.390625 
Q 38.8125 6.390625 42.859375 10.171875 
Q 46.921875 13.96875 46.921875 20.515625 
Q 46.921875 27.09375 42.890625 30.859375 
Q 38.875 34.625 31.78125 34.625 
z
M 21.921875 38.8125 
Q 15.578125 40.375 12.03125 44.71875 
Q 8.5 49.078125 8.5 55.328125 
Q 8.5 64.0625 14.71875 69.140625 
Q 20.953125 74.21875 31.78125 74.21875 
Q 42.671875 74.21875 48.875 69.140625 
Q 55.078125 64.0625 55.078125 55.328125 
Q 55.078125 49.078125 51.53125 44.71875 
Q 48 40.375 41.703125 38.8125 
Q 48.828125 37.15625 52.796875 32.3125 
Q 56.78125 27.484375 56.78125 20.515625 
Q 56.78125 9.90625 50.3125 4.234375 
Q 43.84375 -1.421875 31.78125 -1.421875 
Q 19.734375 -1.421875 13.25 4.234375 
Q 6.78125 9.90625 6.78125 20.515625 
Q 6.78125 27.484375 10.78125 32.3125 
Q 14.796875 37.15625 21.921875 38.8125 
z
M 18.3125 54.390625 
Q 18.3125 48.734375 21.84375 45.5625 
Q 25.390625 42.390625 31.78125 42.390625 
Q 38.140625 42.390625 41.71875 45.5625 
Q 45.3125 48.734375 45.3125 54.390625 
Q 45.3125 60.0625 41.71875 63.234375 
Q 38.140625 66.40625 31.78125 66.40625 
Q 25.390625 66.40625 21.84375 63.234375 
Q 18.3125 60.0625 18.3125 54.390625 
z
" id="DejaVuSans-38"/>
      </defs>
      <g transform="translate(236.055 204.37875)scale(0.08 -0.08)">
       <use xlink:href="#DejaVuSans-38"/>
      </g>
     </g>
    </g>
    <g id="text_5">
     <!-- voltage (V, $\mu$V) -->
     <defs>
      <path d="M 2.984375 54.6875 
L 12.5 54.6875 
L 29.59375 8.796875 
L 46.6875 54.6875 
L 56.203125 54.6875 
L 35.6875 0 
L 23.484375 0 
z
" id="DejaVuSans-76"/>
      <path d="M 30.609375 48.390625 
Q 23.390625 48.390625 19.1875 42.75 
Q 14.984375 37.109375 14.984375 27.296875 
Q 14.984375 17.484375 19.15625 11.84375 
Q 23.34375 6.203125 30.609375 6.203125 
Q 37.796875 6.203125 41.984375 11.859375 
Q 46.1875 17.53125 46.1875 27.296875 
Q 46.1875 37.015625 41.984375 42.703125 
Q 37.796875 48.390625 30.609375 48.390625 
z
M 30.609375 56 
Q 42.328125 56 49.015625 48.375 
Q 55.71875 40.765625 55.71875 27.296875 
Q 55.71875 13.875 49.015625 6.21875 
Q 42.328125 -1.421875 30.609375 -1.421875 
Q 18.84375 -1.421875 12.171875 6.21875 
Q 5.515625 13.875 5.515625 27.296875 
Q 5.515625 40.765625 12.171875 48.375 
Q 18.84375 56 30.609375 56 
z
" id="DejaVuSans-6f"/>
      <path d="M 9.421875 75.984375 
L 18.40625 75.984375 
L 18.40625 0 
L 9.421875 0 
z
" id="DejaVuSans-6c"/>
      <path d="M 18.3125 70.21875 
L 18.3125 54.6875 
L 36.8125 54.6875 
L 36.8125 47.703125 
L 18.3125 47.703125 
L 18.3125 18.015625 
Q 18.3125 11.328125 20.140625 9.421875 
Q 21.96875 7.515625 27.59375 7.515625 
L 36.8125 7.515625 
L 36.8125 0 
L 27.59375 0 
Q 17.1875 0 13.234375 3.875 
Q 9.28125 7.765625 9.28125 18.015625 
L 9.28125 47.703125 
L 2.6875 47.703125 
L 2.6875 54.6875 
L 9.28125 54.6875 
L 9.28125 70.21875 
z
" id="DejaVuSans-74"/>
      <path d="M 34.28125 27.484375 
Q 23.390625 27.484375 19.1875 25 
Q 14.984375 22.515625 14.984375 16.5 
Q 14.984375 11.71875 18.140625 8.90625 
Q 21.296875 6.109375 26.703125 6.109375 
Q 34.1875 6.109375 38.703125 11.40625 
Q 43.21875 16.703125 43.21875 25.484375 
L 43.21875 27.484375 
z
M 52.203125 31.203125 
L 52.203125 0 
L 43.21875 0 
L 43.21875 8.296875 
Q 40.140625 3.328125 35.546875 0.953125 
Q 30.953125 -1.421875 24.3125 -1.421875 
Q 15.921875 -1.421875 10.953125 3.296875 
Q 6 8.015625 6 15.921875 
Q 6 25.140625 12.171875 29.828125 
Q 18.359375 34.515625 30.609375 34.515625 
L 43.21875 34.515625 
L 43.21875 35.40625 
Q 43.21875 41.609375 39.140625 45 
Q 35.0625 48.390625 27.6875 48.390625 
Q 23 48.390625 18.546875 47.265625 
Q 14.109375 46.140625 10.015625 43.890625 
L 10.015625 52.203125 
Q 14.9375 54.109375 19.578125 55.046875 
Q 24.21875 56 28.609375 56 
Q 40.484375 56 46.34375 49.84375 
Q 52.203125 43.703125 52.203125 31.203125 
z
" id="DejaVuSans-61"/>
      <path d="M 45.40625 27.984375 
Q 45.40625 37.75 41.375 43.109375 
Q 37.359375 48.484375 30.078125 48.484375 
Q 22.859375 48.484375 18.828125 43.109375 
Q 14.796875 37.75 14.796875 27.984375 
Q 14.796875 18.265625 18.828125 12.890625 
Q 22.859375 7.515625 30.078125 7.515625 
Q 37.359375 7.515625 41.375 12.890625 
Q 45.40625 18.265625 45.40625 27.984375 
z
M 54.390625 6.78125 
Q 54.390625 -7.171875 48.1875 -13.984375 
Q 42 -20.796875 29.203125 -20.796875 
Q 24.46875 -20.796875 20.265625 -20.09375 
Q 16.0625 -19.390625 12.109375 -17.921875 
L 12.109375 -9.1875 
Q 16.0625 -11.328125 19.921875 -12.34375 
Q 23.78125 -13.375 27.78125 -13.375 
Q 36.625 -13.375 41.015625 -8.765625 
Q 45.40625 -4.15625 45.40625 5.171875 
L 45.40625 9.625 
Q 42.625 4.78125 38.28125 2.390625 
Q 33.9375 0 27.875 0 
Q 17.828125 0 11.671875 7.65625 
Q 5.515625 15.328125 5.515625 27.984375 
Q 5.515625 40.671875 11.671875 48.328125 
Q 17.828125 56 27.875 56 
Q 33.9375 56 38.28125 53.609375 
Q 42.625 51.21875 45.40625 46.390625 
L 45.40625 54.6875 
L 54.390625 54.6875 
z
" id="DejaVuSans-67"/>
      <path d="M 56.203125 29.59375 
L 56.203125 25.203125 
L 14.890625 25.203125 
Q 15.484375 15.921875 20.484375 11.0625 
Q 25.484375 6.203125 34.421875 6.203125 
Q 39.59375 6.203125 44.453125 7.46875 
Q 49.3125 8.734375 54.109375 11.28125 
L 54.109375 2.78125 
Q 49.265625 0.734375 44.1875 -0.34375 
Q 39.109375 -1.421875 33.890625 -1.421875 
Q 20.796875 -1.421875 13.15625 6.1875 
Q 5.515625 13.8125 5.515625 26.8125 
Q 5.515625 40.234375 12.765625 48.109375 
Q 20.015625 56 32.328125 56 
Q 43.359375 56 49.78125 48.890625 
Q 56.203125 41.796875 56.203125 29.59375 
z
M 47.21875 32.234375 
Q 47.125 39.59375 43.09375 43.984375 
Q 39.0625 48.390625 32.421875 48.390625 
Q 24.90625 48.390625 20.390625 44.140625 
Q 15.875 39.890625 15.1875 32.171875 
z
" id="DejaVuSans-65"/>
      <path id="DejaVuSans-20"/>
      <path d="M 31 75.875 
Q 24.46875 64.65625 21.28125 53.65625 
Q 18.109375 42.671875 18.109375 31.390625 
Q 18.109375 20.125 21.3125 9.0625 
Q 24.515625 -2 31 -13.1875 
L 23.1875 -13.1875 
Q 15.875 -1.703125 12.234375 9.375 
Q 8.59375 20.453125 8.59375 31.390625 
Q 8.59375 42.28125 12.203125 53.3125 
Q 15.828125 64.359375 23.1875 75.875 
z
" id="DejaVuSans-28"/>
      <path d="M 28.609375 0 
L 0.78125 72.90625 
L 11.078125 72.90625 
L 34.1875 11.53125 
L 57.328125 72.90625 
L 67.578125 72.90625 
L 39.796875 0 
z
" id="DejaVuSans-56"/>
      <path d="M 11.71875 12.40625 
L 22.015625 12.40625 
L 22.015625 4 
L 14.015625 -11.625 
L 7.71875 -11.625 
L 11.71875 4 
z
" id="DejaVuSans-2c"/>
      <path d="M -1.3125 -20.796875 
L 13.375 54.6875 
L 22.40625 54.6875 
L 15.765625 20.65625 
Q 15.578125 19.625 15.421875 18.359375 
Q 15.28125 17.09375 15.28125 15.828125 
Q 15.28125 11.28125 18.140625 8.828125 
Q 21 6.390625 26.3125 6.390625 
Q 33.546875 6.390625 37.984375 10.484375 
Q 42.4375 14.59375 44 22.796875 
L 50.203125 54.6875 
L 59.1875 54.6875 
L 51.03125 12.640625 
Q 50.828125 11.71875 50.75 11.03125 
Q 50.6875 10.359375 50.6875 9.8125 
Q 50.6875 8.296875 51.296875 7.59375 
Q 51.90625 6.890625 53.21875 6.890625 
Q 53.71875 6.890625 54.5625 7.125 
Q 55.421875 7.375 56.984375 8.015625 
L 55.609375 0.78125 
Q 53.46875 -0.296875 51.515625 -0.859375 
Q 49.5625 -1.421875 47.703125 -1.421875 
Q 44.484375 -1.421875 42.65625 0.625 
Q 40.828125 2.6875 40.828125 6.296875 
Q 38.09375 2.390625 34.296875 0.484375 
Q 30.515625 -1.421875 25.390625 -1.421875 
Q 20.84375 -1.421875 17.453125 0.671875 
Q 14.0625 2.78125 12.984375 6.203125 
L 7.71875 -20.796875 
z
" id="DejaVuSans-Oblique-3bc"/>
      <path d="M 8.015625 75.875 
L 15.828125 75.875 
Q 23.140625 64.359375 26.78125 53.3125 
Q 30.421875 42.28125 30.421875 31.390625 
Q 30.421875 20.453125 26.78125 9.375 
Q 23.140625 -1.703125 15.828125 -13.1875 
L 8.015625 -13.1875 
Q 14.5 -2 17.703125 9.0625 
Q 20.90625 20.125 20.90625 31.390625 
Q 20.90625 42.671875 17.703125 53.65625 
Q 14.5 64.65625 8.015625 75.875 
z
" id="DejaVuSans-29"/>
     </defs>
     <g transform="translate(133.88 216.1225)scale(0.08 -0.08)">
      <use transform="translate(0 0.015625)" xlink:href="#DejaVuSans-76"/>
      <use transform="translate(59.179688 0.015625)" xlink:href="#DejaVuSans-6f"/>
      <use transform="translate(120.361328 0.015625)" xlink:href="#DejaVuSans-6c"/>
      <use transform="translate(148.144531 0.015625)" xlink:href="#DejaVuSans-74"/>
      <use transform="translate(187.353516 0.015625)" xlink:href="#DejaVuSans-61"/>
      <use transform="translate(248.632812 0.015625)" xlink:href="#DejaVuSans-67"/>
      <use transform="translate(312.109375 0.015625)" xlink:href="#DejaVuSans-65"/>
      <use transform="translate(373.632812 0.015625)" xlink:href="#DejaVuSans-20"/>
      <use transform="translate(405.419922 0.015625)" xlink:href="#DejaVuSans-28"/>
      <use transform="translate(444.433594 0.015625)" xlink:href="#DejaVuSans-56"/>
      <use transform="translate(512.841797 0.015625)" xlink:href="#DejaVuSans-2c"/>
      <use transform="translate(544.628906 0.015625)" xlink:href="#DejaVuSans-20"/>
      <use transform="translate(576.416016 0.015625)" xlink:href="#DejaVuSans-Oblique-3bc"/>
      <use transform="translate(640.039062 0.015625)" xlink:href="#DejaVuSans-56"/>
      <use transform="translate(708.447266 0.015625)" xlink:href="#DejaVuSans-29"/>
     </g>
    </g>
   </g>
   <g id="matplotlib.axis_2">
    <g id="ytick_1">
     <g id="line2d_5">
      <defs>
       <path d="M 0 0 
L -2 0 
" id="mca9b6be568" style="stroke:#000000;stroke-width:0.8;"/>
      </defs>
      <g>
       <use style="stroke:#000000;stroke-width:0.8;" x="34.8" xlink:href="#mca9b6be568" y="158.798661"/>
      </g>
     </g>
     <g id="text_6">
      <!-- 0.75 -->
      <defs>
       <path d="M 31.78125 66.40625 
Q 24.171875 66.40625 20.328125 58.90625 
Q 16.5 51.421875 16.5 36.375 
Q 16.5 21.390625 20.328125 13.890625 
Q 24.171875 6.390625 31.78125 6.390625 
Q 39.453125 6.390625 43.28125 13.890625 
Q 47.125 21.390625 47.125 36.375 
Q 47.125 51.421875 43.28125 58.90625 
Q 39.453125 66.40625 31.78125 66.40625 
z
M 31.78125 74.21875 
Q 44.046875 74.21875 50.515625 64.515625 
Q 56.984375 54.828125 56.984375 36.375 
Q 56.984375 17.96875 50.515625 8.265625 
Q 44.046875 -1.421875 31.78125 -1.421875 
Q 19.53125 -1.421875 13.0625 8.265625 
Q 6.59375 17.96875 6.59375 36.375 
Q 6.59375 54.828125 13.0625 64.515625 
Q 19.53125 74.21875 31.78125 74.21875 
z
" id="DejaVuSans-30"/>
       <path d="M 10.6875 12.40625 
L 21 12.40625 
L 21 0 
L 10.6875 0 
z
" id="DejaVuSans-2e"/>
       <path d="M 8.203125 72.90625 
L 55.078125 72.90625 
L 55.078125 68.703125 
L 28.609375 0 
L 18.3125 0 
L 43.21875 64.59375 
L 8.203125 64.59375 
z
" id="DejaVuSans-37"/>
       <path d="M 10.796875 72.90625 
L 49.515625 72.90625 
L 49.515625 64.59375 
L 19.828125 64.59375 
L 19.828125 46.734375 
Q 21.96875 47.46875 24.109375 47.828125 
Q 26.265625 48.1875 28.421875 48.1875 
Q 40.625 48.1875 47.75 41.5 
Q 54.890625 34.8125 54.890625 23.390625 
Q 54.890625 11.625 47.5625 5.09375 
Q 40.234375 -1.421875 26.90625 -1.421875 
Q 22.3125 -1.421875 17.546875 -0.640625 
Q 12.796875 0.140625 7.71875 1.703125 
L 7.71875 11.625 
Q 12.109375 9.234375 16.796875 8.0625 
Q 21.484375 6.890625 26.703125 6.890625 
Q 35.15625 6.890625 40.078125 11.328125 
Q 45.015625 15.765625 45.015625 23.390625 
Q 45.015625 31 40.078125 35.4375 
Q 35.15625 39.890625 26.703125 39.890625 
Q 22.75 39.890625 18.8125 39.015625 
Q 14.890625 38.140625 10.796875 36.28125 
z
" id="DejaVuSans-35"/>
      </defs>
      <g transform="translate(11.4875 161.838036)scale(0.08 -0.08)">
       <use xlink:href="#DejaVuSans-30"/>
       <use x="63.623047" xlink:href="#DejaVuSans-2e"/>
       <use x="95.410156" xlink:href="#DejaVuSans-37"/>
       <use x="159.033203" xlink:href="#DejaVuSans-35"/>
      </g>
     </g>
    </g>
    <g id="ytick_2">
     <g id="line2d_6">
      <g>
       <use style="stroke:#000000;stroke-width:0.8;" x="34.8" xlink:href="#mca9b6be568" y="138.282606"/>
      </g>
     </g>
     <g id="text_7">
      <!-- 1.00 -->
      <defs>
       <path d="M 12.40625 8.296875 
L 28.515625 8.296875 
L 28.515625 63.921875 
L 10.984375 60.40625 
L 10.984375 69.390625 
L 28.421875 72.90625 
L 38.28125 72.90625 
L 38.28125 8.296875 
L 54.390625 8.296875 
L 54.390625 0 
L 12.40625 0 
z
" id="DejaVuSans-31"/>
      </defs>
      <g transform="translate(11.4875 141.321981)scale(0.08 -0.08)">
       <use xlink:href="#DejaVuSans-31"/>
       <use x="63.623047" xlink:href="#DejaVuSans-2e"/>
       <use x="95.410156" xlink:href="#DejaVuSans-30"/>
       <use x="159.033203" xlink:href="#DejaVuSans-30"/>
      </g>
     </g>
    </g>
    <g id="ytick_3">
     <g id="line2d_7">
      <g>
       <use style="stroke:#000000;stroke-width:0.8;" x="34.8" xlink:href="#mca9b6be568" y="117.76655"/>
      </g>
     </g>
     <g id="text_8">
      <!-- 1.25 -->
      <g transform="translate(11.4875 120.805925)scale(0.08 -0.08)">
       <use xlink:href="#DejaVuSans-31"/>
       <use x="63.623047" xlink:href="#DejaVuSans-2e"/>
       <use x="95.410156" xlink:href="#DejaVuSans-32"/>
       <use x="159.033203" xlink:href="#DejaVuSans-35"/>
      </g>
     </g>
    </g>
    <g id="ytick_4">
     <g id="line2d_8">
      <g>
       <use style="stroke:#000000;stroke-width:0.8;" x="34.8" xlink:href="#mca9b6be568" y="97.250495"/>
      </g>
     </g>
     <g id="text_9">
      <!-- 1.50 -->
      <g transform="translate(11.4875 100.28987)scale(0.08 -0.08)">
       <use xlink:href="#DejaVuSans-31"/>
       <use x="63.623047" xlink:href="#DejaVuSans-2e"/>
       <use x="95.410156" xlink:href="#DejaVuSans-35"/>
       <use x="159.033203" xlink:href="#DejaVuSans-30"/>
      </g>
     </g>
    </g>
    <g id="ytick_5">
     <g id="line2d_9">
      <g>
       <use style="stroke:#000000;stroke-width:0.8;" x="34.8" xlink:href="#mca9b6be568" y="76.73444"/>
      </g>
     </g>
     <g id="text_10">
      <!-- 1.75 -->
      <g transform="translate(11.4875 79.773815)scale(0.08 -0.08)">
       <use xlink:href="#DejaVuSans-31"/>
       <use x="63.623047" xlink:href="#DejaVuSans-2e"/>
       <use x="95.410156" xlink:href="#DejaVuSans-37"/>
       <use x="159.033203" xlink:href="#DejaVuSans-35"/>
      </g>
     </g>
    </g>
    <g id="ytick_6">
     <g id="line2d_10">
      <g>
       <use style="stroke:#000000;stroke-width:0.8;" x="34.8" xlink:href="#mca9b6be568" y="56.218385"/>
      </g>
     </g>
     <g id="text_11">
      <!-- 2.00 -->
      <g transform="translate(11.4875 59.25776)scale(0.08 -0.08)">
       <use xlink:href="#DejaVuSans-32"/>
       <use x="63.623047" xlink:href="#DejaVuSans-2e"/>
       <use x="95.410156" xlink:href="#DejaVuSans-30"/>
       <use x="159.033203" xlink:href="#DejaVuSans-30"/>
      </g>
     </g>
    </g>
    <g id="ytick_7">
     <g id="line2d_11">
      <g>
       <use style="stroke:#000000;stroke-width:0.8;" x="34.8" xlink:href="#mca9b6be568" y="35.70233"/>
      </g>
     </g>
     <g id="text_12">
      <!-- 2.25 -->
      <g transform="translate(11.4875 38.741705)scale(0.08 -0.08)">
       <use xlink:href="#DejaVuSans-32"/>
       <use x="63.623047" xlink:href="#DejaVuSans-2e"/>
       <use x="95.410156" xlink:href="#DejaVuSans-32"/>
       <use x="159.033203" xlink:href="#DejaVuSans-35"/>
      </g>
     </g>
    </g>
    <g id="text_13">
     <!-- luminescence (L) -->
     <defs>
      <path d="M 8.5 21.578125 
L 8.5 54.6875 
L 17.484375 54.6875 
L 17.484375 21.921875 
Q 17.484375 14.15625 20.5 10.265625 
Q 23.53125 6.390625 29.59375 6.390625 
Q 36.859375 6.390625 41.078125 11.03125 
Q 45.3125 15.671875 45.3125 23.6875 
L 45.3125 54.6875 
L 54.296875 54.6875 
L 54.296875 0 
L 45.3125 0 
L 45.3125 8.40625 
Q 42.046875 3.421875 37.71875 1 
Q 33.40625 -1.421875 27.6875 -1.421875 
Q 18.265625 -1.421875 13.375 4.4375 
Q 8.5 10.296875 8.5 21.578125 
z
M 31.109375 56 
z
" id="DejaVuSans-75"/>
      <path d="M 52 44.1875 
Q 55.375 50.25 60.0625 53.125 
Q 64.75 56 71.09375 56 
Q 79.640625 56 84.28125 50.015625 
Q 88.921875 44.046875 88.921875 33.015625 
L 88.921875 0 
L 79.890625 0 
L 79.890625 32.71875 
Q 79.890625 40.578125 77.09375 44.375 
Q 74.3125 48.1875 68.609375 48.1875 
Q 61.625 48.1875 57.5625 43.546875 
Q 53.515625 38.921875 53.515625 30.90625 
L 53.515625 0 
L 44.484375 0 
L 44.484375 32.71875 
Q 44.484375 40.625 41.703125 44.40625 
Q 38.921875 48.1875 33.109375 48.1875 
Q 26.21875 48.1875 22.15625 43.53125 
Q 18.109375 38.875 18.109375 30.90625 
L 18.109375 0 
L 9.078125 0 
L 9.078125 54.6875 
L 18.109375 54.6875 
L 18.109375 46.1875 
Q 21.1875 51.21875 25.484375 53.609375 
Q 29.78125 56 35.6875 56 
Q 41.65625 56 45.828125 52.96875 
Q 50 49.953125 52 44.1875 
z
" id="DejaVuSans-6d"/>
      <path d="M 9.421875 54.6875 
L 18.40625 54.6875 
L 18.40625 0 
L 9.421875 0 
z
M 9.421875 75.984375 
L 18.40625 75.984375 
L 18.40625 64.59375 
L 9.421875 64.59375 
z
" id="DejaVuSans-69"/>
      <path d="M 54.890625 33.015625 
L 54.890625 0 
L 45.90625 0 
L 45.90625 32.71875 
Q 45.90625 40.484375 42.875 44.328125 
Q 39.84375 48.1875 33.796875 48.1875 
Q 26.515625 48.1875 22.3125 43.546875 
Q 18.109375 38.921875 18.109375 30.90625 
L 18.109375 0 
L 9.078125 0 
L 9.078125 54.6875 
L 18.109375 54.6875 
L 18.109375 46.1875 
Q 21.34375 51.125 25.703125 53.5625 
Q 30.078125 56 35.796875 56 
Q 45.21875 56 50.046875 50.171875 
Q 54.890625 44.34375 54.890625 33.015625 
z
" id="DejaVuSans-6e"/>
      <path d="M 44.28125 53.078125 
L 44.28125 44.578125 
Q 40.484375 46.53125 36.375 47.5 
Q 32.28125 48.484375 27.875 48.484375 
Q 21.1875 48.484375 17.84375 46.4375 
Q 14.5 44.390625 14.5 40.28125 
Q 14.5 37.15625 16.890625 35.375 
Q 19.28125 33.59375 26.515625 31.984375 
L 29.59375 31.296875 
Q 39.15625 29.25 43.1875 25.515625 
Q 47.21875 21.78125 47.21875 15.09375 
Q 47.21875 7.46875 41.1875 3.015625 
Q 35.15625 -1.421875 24.609375 -1.421875 
Q 20.21875 -1.421875 15.453125 -0.5625 
Q 10.6875 0.296875 5.421875 2 
L 5.421875 11.28125 
Q 10.40625 8.6875 15.234375 7.390625 
Q 20.0625 6.109375 24.8125 6.109375 
Q 31.15625 6.109375 34.5625 8.28125 
Q 37.984375 10.453125 37.984375 14.40625 
Q 37.984375 18.0625 35.515625 20.015625 
Q 33.0625 21.96875 24.703125 23.78125 
L 21.578125 24.515625 
Q 13.234375 26.265625 9.515625 29.90625 
Q 5.8125 33.546875 5.8125 39.890625 
Q 5.8125 47.609375 11.28125 51.796875 
Q 16.75 56 26.8125 56 
Q 31.78125 56 36.171875 55.265625 
Q 40.578125 54.546875 44.28125 53.078125 
z
" id="DejaVuSans-73"/>
      <path d="M 48.78125 52.59375 
L 48.78125 44.1875 
Q 44.96875 46.296875 41.140625 47.34375 
Q 37.3125 48.390625 33.40625 48.390625 
Q 24.65625 48.390625 19.8125 42.84375 
Q 14.984375 37.3125 14.984375 27.296875 
Q 14.984375 17.28125 19.8125 11.734375 
Q 24.65625 6.203125 33.40625 6.203125 
Q 37.3125 6.203125 41.140625 7.25 
Q 44.96875 8.296875 48.78125 10.40625 
L 48.78125 2.09375 
Q 45.015625 0.34375 40.984375 -0.53125 
Q 36.96875 -1.421875 32.421875 -1.421875 
Q 20.0625 -1.421875 12.78125 6.34375 
Q 5.515625 14.109375 5.515625 27.296875 
Q 5.515625 40.671875 12.859375 48.328125 
Q 20.21875 56 33.015625 56 
Q 37.15625 56 41.109375 55.140625 
Q 45.0625 54.296875 48.78125 52.59375 
z
" id="DejaVuSans-63"/>
      <path d="M 9.8125 72.90625 
L 19.671875 72.90625 
L 19.671875 8.296875 
L 55.171875 8.296875 
L 55.171875 0 
L 9.8125 0 
z
" id="DejaVuSans-4c"/>
     </defs>
     <g transform="translate(5.82375 136.81125)rotate(-90)scale(0.08 -0.08)">
      <use xlink:href="#DejaVuSans-6c"/>
      <use x="27.783203" xlink:href="#DejaVuSans-75"/>
      <use x="91.162109" xlink:href="#DejaVuSans-6d"/>
      <use x="188.574219" xlink:href="#DejaVuSans-69"/>
      <use x="216.357422" xlink:href="#DejaVuSans-6e"/>
      <use x="279.736328" xlink:href="#DejaVuSans-65"/>
      <use x="341.259766" xlink:href="#DejaVuSans-73"/>
      <use x="393.359375" xlink:href="#DejaVuSans-63"/>
      <use x="448.339844" xlink:href="#DejaVuSans-65"/>
      <use x="509.863281" xlink:href="#DejaVuSans-6e"/>
      <use x="573.242188" xlink:href="#DejaVuSans-63"/>
      <use x="628.222656" xlink:href="#DejaVuSans-65"/>
      <use x="689.746094" xlink:href="#DejaVuSans-20"/>
      <use x="721.533203" xlink:href="#DejaVuSans-28"/>
      <use x="760.546875" xlink:href="#DejaVuSans-4c"/>
      <use x="816.259766" xlink:href="#DejaVuSans-29"/>
     </g>
    </g>
   </g>
   <g id="line2d_12">
    <defs>
     <path d="M 0 1 
C 0.265203 1 0.51958 0.894634 0.707107 0.707107 
C 0.894634 0.51958 1 0.265203 1 0 
C 1 -0.265203 0.894634 -0.51958 0.707107 -0.707107 
C 0.51958 -0.894634 0.265203 -1 0 -1 
C -0.265203 -1 -0.51958 -0.894634 -0.707107 -0.707107 
C -0.894634 -0.51958 -1 -0.265203 -1 0 
C -1 0.265203 -0.894634 0.51958 -0.707107 0.707107 
C -0.51958 0.894634 -0.265203 1 0 1 
z
" id="me54c79c596" style="stroke:#000000;"/>
    </defs>
    <g>
     <use style="stroke:#000000;" x="64.8" xlink:href="#me54c79c596" y="129.938433"/>
     <use style="stroke:#000000;" x="68.1" xlink:href="#me54c79c596" y="157.125999"/>
     <use style="stroke:#000000;" x="71.4" xlink:href="#me54c79c596" y="113.951123"/>
     <use style="stroke:#000000;" x="74.7" xlink:href="#me54c79c596" y="142.466783"/>
     <use style="stroke:#000000;" x="78" xlink:href="#me54c79c596" y="149.010929"/>
     <use style="stroke:#000000;" x="81.3" xlink:href="#me54c79c596" y="122.448122"/>
     <use style="stroke:#000000;" x="84.6" xlink:href="#me54c79c596" y="122.698291"/>
     <use style="stroke:#000000;" x="87.9" xlink:href="#me54c79c596" y="147.019848"/>
     <use style="stroke:#000000;" x="91.2" xlink:href="#me54c79c596" y="136.045018"/>
     <use style="stroke:#000000;" x="94.5" xlink:href="#me54c79c596" y="172.8"/>
     <use style="stroke:#000000;" x="97.8" xlink:href="#me54c79c596" y="116.756946"/>
     <use style="stroke:#000000;" x="101.1" xlink:href="#me54c79c596" y="118.938748"/>
     <use style="stroke:#000000;" x="104.4" xlink:href="#me54c79c596" y="119.098282"/>
     <use style="stroke:#000000;" x="107.7" xlink:href="#me54c79c596" y="167.375558"/>
     <use style="stroke:#000000;" x="111" xlink:href="#me54c79c596" y="139.061502"/>
     <use style="stroke:#000000;" x="114.3" xlink:href="#me54c79c596" y="132.832501"/>
     <use style="stroke:#000000;" x="117.6" xlink:href="#me54c79c596" y="125.40272"/>
     <use style="stroke:#000000;" x="120.9" xlink:href="#me54c79c596" y="126.3928"/>
     <use style="stroke:#000000;" x="124.2" xlink:href="#me54c79c596" y="108.412696"/>
     <use style="stroke:#000000;" x="127.5" xlink:href="#me54c79c596" y="154.312106"/>
     <use style="stroke:#000000;" x="130.8" xlink:href="#me54c79c596" y="130.931358"/>
     <use style="stroke:#000000;" x="134.1" xlink:href="#me54c79c596" y="136.89955"/>
     <use style="stroke:#000000;" x="137.4" xlink:href="#me54c79c596" y="121.32273"/>
     <use style="stroke:#000000;" x="140.7" xlink:href="#me54c79c596" y="113.606769"/>
     <use style="stroke:#000000;" x="144" xlink:href="#me54c79c596" y="99.072704"/>
     <use style="stroke:#000000;" x="147.3" xlink:href="#me54c79c596" y="126.249691"/>
     <use style="stroke:#000000;" x="150.6" xlink:href="#me54c79c596" y="105.124374"/>
     <use style="stroke:#000000;" x="153.9" xlink:href="#me54c79c596" y="143.532466"/>
     <use style="stroke:#000000;" x="157.2" xlink:href="#me54c79c596" y="114.058026"/>
     <use style="stroke:#000000;" x="160.5" xlink:href="#me54c79c596" y="90.877532"/>
     <use style="stroke:#000000;" x="163.8" xlink:href="#me54c79c596" y="111.878911"/>
     <use style="stroke:#000000;" x="167.1" xlink:href="#me54c79c596" y="96.81465"/>
     <use style="stroke:#000000;" x="170.4" xlink:href="#me54c79c596" y="82.106649"/>
     <use style="stroke:#000000;" x="173.7" xlink:href="#me54c79c596" y="79.058085"/>
     <use style="stroke:#000000;" x="177" xlink:href="#me54c79c596" y="78.98485"/>
     <use style="stroke:#000000;" x="180.3" xlink:href="#me54c79c596" y="92.146161"/>
     <use style="stroke:#000000;" x="183.6" xlink:href="#me54c79c596" y="85.154071"/>
     <use style="stroke:#000000;" x="186.9" xlink:href="#me54c79c596" y="89.663535"/>
     <use style="stroke:#000000;" x="190.2" xlink:href="#me54c79c596" y="67.846112"/>
     <use style="stroke:#000000;" x="193.5" xlink:href="#me54c79c596" y="39.862388"/>
     <use style="stroke:#000000;" x="196.8" xlink:href="#me54c79c596" y="75.462443"/>
     <use style="stroke:#000000;" x="200.1" xlink:href="#me54c79c596" y="83.791087"/>
     <use style="stroke:#000000;" x="203.4" xlink:href="#me54c79c596" y="71.858818"/>
     <use style="stroke:#000000;" x="206.7" xlink:href="#me54c79c596" y="104.642987"/>
     <use style="stroke:#000000;" x="210" xlink:href="#me54c79c596" y="64.827482"/>
     <use style="stroke:#000000;" x="213.3" xlink:href="#me54c79c596" y="82.093583"/>
     <use style="stroke:#000000;" x="216.6" xlink:href="#me54c79c596" y="68.245872"/>
     <use style="stroke:#000000;" x="219.9" xlink:href="#me54c79c596" y="64.480068"/>
     <use style="stroke:#000000;" x="223.2" xlink:href="#me54c79c596" y="51.297828"/>
     <use style="stroke:#000000;" x="226.5" xlink:href="#me54c79c596" y="59.204278"/>
     <use style="stroke:#000000;" x="229.8" xlink:href="#me54c79c596" y="48.088829"/>
     <use style="stroke:#000000;" x="233.1" xlink:href="#me54c79c596" y="84.879205"/>
     <use style="stroke:#000000;" x="236.4" xlink:href="#me54c79c596" y="83.508695"/>
     <use style="stroke:#000000;" x="239.7" xlink:href="#me54c79c596" y="61.585476"/>
     <use style="stroke:#000000;" x="243" xlink:href="#me54c79c596" y="68.430707"/>
     <use style="stroke:#000000;" x="246.3" xlink:href="#me54c79c596" y="61.373583"/>
     <use style="stroke:#000000;" x="249.6" xlink:href="#me54c79c596" y="52.81339"/>
     <use style="stroke:#000000;" x="252.9" xlink:href="#me54c79c596" y="58.880163"/>
     <use style="stroke:#000000;" x="256.2" xlink:href="#me54c79c596" y="48.72868"/>
     <use style="stroke:#000000;" x="259.5" xlink:href="#me54c79c596" y="32.4"/>
     <use style="stroke:#000000;" x="262.8" xlink:href="#me54c79c596" y="73.546226"/>
    </g>
   </g>
   <g id="line2d_13">
    <path clip-path="url(#pe55982817f)" d="M 62.6 137.733362 
L 64.822222 137.675416 
L 67.044444 137.611407 
L 69.266667 137.540712 
L 71.488889 137.462645 
L 73.711111 137.376456 
L 75.933333 137.281318 
L 78.155556 137.176328 
L 80.377778 137.060496 
L 82.6 136.932737 
L 84.822222 136.791869 
L 87.044444 136.6366 
L 89.266667 136.465523 
L 91.488889 136.277109 
L 93.711111 136.069697 
L 95.933333 135.841488 
L 98.155556 135.590539 
L 100.377778 135.314753 
L 102.6 135.011879 
L 104.822222 134.679504 
L 107.044444 134.315053 
L 109.266667 133.91579 
L 111.488889 133.47882 
L 113.711111 133.001097 
L 115.933333 132.479433 
L 118.155556 131.91052 
L 120.377778 131.290947 
L 122.6 130.617233 
L 124.822222 129.88586 
L 127.044444 129.093324 
L 129.266667 128.236186 
L 131.488889 127.311133 
L 133.711111 126.315059 
L 135.933333 125.245136 
L 138.155556 124.098916 
L 140.377778 122.874417 
L 142.6 121.570233 
L 144.822222 120.185629 
L 147.044444 118.72065 
L 149.266667 117.176209 
L 151.488889 115.554173 
L 153.711111 113.857431 
L 155.933333 112.089936 
L 158.155556 110.25673 
L 160.377778 108.363924 
L 162.6 106.418662 
L 164.822222 104.429033 
L 167.044444 102.40396 
L 169.266667 100.353055 
L 171.488889 98.28644 
L 173.711111 96.214551 
L 175.933333 94.147935 
L 178.155556 92.09703 
L 180.377778 90.071958 
L 182.6 88.082329 
L 184.822222 86.137066 
L 187.044444 84.244261 
L 189.266667 82.411054 
L 191.488889 80.64356 
L 193.711111 78.946817 
L 195.933333 77.324782 
L 198.155556 75.780341 
L 200.377778 74.315361 
L 202.6 72.930758 
L 204.822222 71.626573 
L 207.044444 70.402075 
L 209.266667 69.255854 
L 211.488889 68.185932 
L 213.711111 67.189857 
L 215.933333 66.264805 
L 218.155556 65.407666 
L 220.377778 64.615131 
L 222.6 63.883758 
L 224.822222 63.210043 
L 227.044444 62.59047 
L 229.266667 62.021557 
L 231.488889 61.499894 
L 233.711111 61.02217 
L 235.933333 60.5852 
L 238.155556 60.185938 
L 240.377778 59.821487 
L 242.6 59.489112 
L 244.822222 59.186238 
L 247.044444 58.910452 
L 249.266667 58.659502 
L 251.488889 58.431293 
L 253.711111 58.223882 
L 255.933333 58.035468 
L 258.155556 57.864391 
L 260.377778 57.709122 
L 262.6 57.568254 
L 264.822222 57.440495 
L 267.044444 57.324662 
L 269.266667 57.219672 
L 271.488889 57.124535 
L 273.711111 57.038345 
L 275.933333 56.960279 
L 278.155556 56.889584 
L 280.377778 56.825575 
L 282.6 56.767629 
" style="fill:none;stroke:#ff0000;stroke-linecap:square;stroke-width:0.8;"/>
   </g>
   <g id="patch_3">
    <path d="M 34.8 172.8 
L 34.8 32.4 
" style="fill:none;stroke:#000000;stroke-linecap:square;stroke-linejoin:miter;stroke-width:0.5;"/>
   </g>
   <g id="patch_4">
    <path d="M 64.8 192.8 
L 262.8 192.8 
" style="fill:none;stroke:#000000;stroke-linecap:square;stroke-linejoin:miter;stroke-width:0.5;"/>
   </g>
   <g id="text_14">
    <!-- L = $\frac{1}{1+\exp(-V+5)}+10$ -->
    <defs>
     <path d="M 10.59375 45.40625 
L 73.1875 45.40625 
L 73.1875 37.203125 
L 10.59375 37.203125 
z
M 10.59375 25.484375 
L 73.1875 25.484375 
L 73.1875 17.1875 
L 10.59375 17.1875 
z
" id="DejaVuSans-3d"/>
     <path d="M 46 62.703125 
L 46 35.5 
L 73.1875 35.5 
L 73.1875 27.203125 
L 46 27.203125 
L 46 0 
L 37.796875 0 
L 37.796875 27.203125 
L 10.59375 27.203125 
L 10.59375 35.5 
L 37.796875 35.5 
L 37.796875 62.703125 
z
" id="DejaVuSans-2b"/>
     <path d="M 54.890625 54.6875 
L 35.109375 28.078125 
L 55.90625 0 
L 45.3125 0 
L 29.390625 21.484375 
L 13.484375 0 
L 2.875 0 
L 24.125 28.609375 
L 4.6875 54.6875 
L 15.28125 54.6875 
L 29.78125 35.203125 
L 44.28125 54.6875 
z
" id="DejaVuSans-78"/>
     <path d="M 18.109375 8.203125 
L 18.109375 -20.796875 
L 9.078125 -20.796875 
L 9.078125 54.6875 
L 18.109375 54.6875 
L 18.109375 46.390625 
Q 20.953125 51.265625 25.265625 53.625 
Q 29.59375 56 35.59375 56 
Q 45.5625 56 51.78125 48.09375 
Q 58.015625 40.1875 58.015625 27.296875 
Q 58.015625 14.40625 51.78125 6.484375 
Q 45.5625 -1.421875 35.59375 -1.421875 
Q 29.59375 -1.421875 25.265625 0.953125 
Q 20.953125 3.328125 18.109375 8.203125 
z
M 48.6875 27.296875 
Q 48.6875 37.203125 44.609375 42.84375 
Q 40.53125 48.484375 33.40625 48.484375 
Q 26.265625 48.484375 22.1875 42.84375 
Q 18.109375 37.203125 18.109375 27.296875 
Q 18.109375 17.390625 22.1875 11.75 
Q 26.265625 6.109375 33.40625 6.109375 
Q 40.53125 6.109375 44.609375 11.75 
Q 48.6875 17.390625 48.6875 27.296875 
z
" id="DejaVuSans-70"/>
     <path d="M 10.59375 35.5 
L 73.1875 35.5 
L 73.1875 27.203125 
L 10.59375 27.203125 
z
" id="DejaVuSans-2212"/>
     <path d="M 20.609375 0 
L 7.8125 72.90625 
L 17.484375 72.90625 
L 28.078125 10.203125 
L 63.484375 72.90625 
L 74.21875 72.90625 
L 32.078125 0 
z
" id="DejaVuSans-Oblique-56"/>
    </defs>
    <g transform="translate(172.6 147.782606)scale(0.1 -0.1)">
     <use transform="translate(0 0.16875)" xlink:href="#DejaVuSans-4c"/>
     <use transform="translate(55.712891 0.16875)" xlink:href="#DejaVuSans-20"/>
     <use transform="translate(87.5 0.16875)" xlink:href="#DejaVuSans-3d"/>
     <use transform="translate(171.289062 0.16875)" xlink:href="#DejaVuSans-20"/>
     <use transform="translate(456.076172 43.965625)scale(0.7)" xlink:href="#DejaVuSans-31"/>
     <use transform="translate(203.076172 -40.396875)scale(0.7)" xlink:href="#DejaVuSans-31"/>
     <use transform="translate(261.25 -40.396875)scale(0.7)" xlink:href="#DejaVuSans-2b"/>
     <use transform="translate(333.540039 -40.396875)scale(0.7)" xlink:href="#DejaVuSans-65"/>
     <use transform="translate(376.606445 -40.396875)scale(0.7)" xlink:href="#DejaVuSans-78"/>
     <use transform="translate(418.032227 -40.396875)scale(0.7)" xlink:href="#DejaVuSans-70"/>
     <use transform="translate(462.46582 -40.396875)scale(0.7)" xlink:href="#DejaVuSans-28"/>
     <use transform="translate(489.775391 -40.396875)scale(0.7)" xlink:href="#DejaVuSans-2212"/>
     <use transform="translate(548.427734 -40.396875)scale(0.7)" xlink:href="#DejaVuSans-Oblique-56"/>
     <use transform="translate(609.951172 -40.396875)scale(0.7)" xlink:href="#DejaVuSans-2b"/>
     <use transform="translate(682.241211 -40.396875)scale(0.7)" xlink:href="#DejaVuSans-35"/>
     <use transform="translate(726.777344 -40.396875)scale(0.7)" xlink:href="#DejaVuSans-29"/>
     <use transform="translate(786.069336 0.16875)" xlink:href="#DejaVuSans-2b"/>
     <use transform="translate(889.34082 0.16875)" xlink:href="#DejaVuSans-31"/>
     <use transform="translate(952.963867 0.16875)" xlink:href="#DejaVuSans-30"/>
     <path d="M 203.076172 18.965625 
L 203.076172 25.215625 
L 754.086914 25.215625 
L 754.086914 18.965625 
L 203.076172 18.965625 
z
"/>
    </g>
   </g>
  </g>
  <g id="axes_2">
   <g id="patch_5">
    <path clip-path="url(#p4a627ae24d)" d="M 75.705337 54 
L 82.377786 54 
L 82.377786 42.244898 
L 75.705337 42.244898 
z
" style="fill:#cccccc;stroke:#ffffff;stroke-linejoin:miter;stroke-width:2;"/>
   </g>
   <g id="patch_6">
    <path clip-path="url(#p4a627ae24d)" d="M 82.377786 54 
L 89.050236 54 
L 89.050236 45.183673 
L 82.377786 45.183673 
z
" style="fill:#cccccc;stroke:#ffffff;stroke-linejoin:miter;stroke-width:2;"/>
   </g>
   <g id="patch_7">
    <path clip-path="url(#p4a627ae24d)" d="M 89.050236 54 
L 95.722685 54 
L 95.722685 45.183673 
L 89.050236 45.183673 
z
" style="fill:#cccccc;stroke:#ffffff;stroke-linejoin:miter;stroke-width:2;"/>
   </g>
   <g id="patch_8">
    <path clip-path="url(#p4a627ae24d)" d="M 95.722685 54 
L 102.395135 54 
L 102.395135 33.428571 
L 95.722685 33.428571 
z
" style="fill:#cccccc;stroke:#ffffff;stroke-linejoin:miter;stroke-width:2;"/>
   </g>
   <g id="patch_9">
    <path clip-path="url(#p4a627ae24d)" d="M 102.395135 54 
L 109.067584 54 
L 109.067584 12.857143 
L 102.395135 12.857143 
z
" style="fill:#cccccc;stroke:#ffffff;stroke-linejoin:miter;stroke-width:2;"/>
   </g>
   <g id="patch_10">
    <path clip-path="url(#p4a627ae24d)" d="M 109.067584 54 
L 115.740034 54 
L 115.740034 24.612245 
L 109.067584 24.612245 
z
" style="fill:#cccccc;stroke:#ffffff;stroke-linejoin:miter;stroke-width:2;"/>
   </g>
   <g id="patch_11">
    <path clip-path="url(#p4a627ae24d)" d="M 115.740034 54 
L 122.412483 54 
L 122.412483 21.673469 
L 115.740034 21.673469 
z
" style="fill:#cccccc;stroke:#ffffff;stroke-linejoin:miter;stroke-width:2;"/>
   </g>
   <g id="patch_12">
    <path clip-path="url(#p4a627ae24d)" d="M 122.412483 54 
L 129.084932 54 
L 129.084932 33.428571 
L 122.412483 33.428571 
z
" style="fill:#cccccc;stroke:#ffffff;stroke-linejoin:miter;stroke-width:2;"/>
   </g>
   <g id="patch_13">
    <path clip-path="url(#p4a627ae24d)" d="M 129.084932 54 
L 135.757382 54 
L 135.757382 51.061224 
L 129.084932 51.061224 
z
" style="fill:#cccccc;stroke:#ffffff;stroke-linejoin:miter;stroke-width:2;"/>
   </g>
   <g id="patch_14">
    <path clip-path="url(#p4a627ae24d)" d="M 135.757382 54 
L 142.429831 54 
L 142.429831 51.061224 
L 135.757382 51.061224 
z
" style="fill:#cccccc;stroke:#ffffff;stroke-linejoin:miter;stroke-width:2;"/>
   </g>
   <g id="matplotlib.axis_3">
    <g id="xtick_5">
     <g id="text_15">
      <!-- -0.5 -->
      <defs>
       <path d="M 4.890625 31.390625 
L 31.203125 31.390625 
L 31.203125 23.390625 
L 4.890625 23.390625 
z
" id="DejaVuSans-2d"/>
      </defs>
      <g transform="translate(66.146719 64.059063)scale(0.06 -0.06)">
       <use xlink:href="#DejaVuSans-2d"/>
       <use x="36.083984" xlink:href="#DejaVuSans-30"/>
       <use x="99.707031" xlink:href="#DejaVuSans-2e"/>
       <use x="131.494141" xlink:href="#DejaVuSans-35"/>
      </g>
     </g>
    </g>
    <g id="xtick_6">
     <g id="text_16">
      <!-- 0 -->
      <g transform="translate(106.09125 64.059063)scale(0.06 -0.06)">
       <use xlink:href="#DejaVuSans-30"/>
      </g>
     </g>
    </g>
    <g id="xtick_7">
     <g id="text_17">
      <!-- 0.5 -->
      <g transform="translate(139.229062 64.059063)scale(0.06 -0.06)">
       <use xlink:href="#DejaVuSans-30"/>
       <use x="63.623047" xlink:href="#DejaVuSans-2e"/>
       <use x="95.410156" xlink:href="#DejaVuSans-35"/>
      </g>
     </g>
    </g>
    <g id="text_18">
     <!-- residuals -->
     <defs>
      <path d="M 41.109375 46.296875 
Q 39.59375 47.171875 37.8125 47.578125 
Q 36.03125 48 33.890625 48 
Q 26.265625 48 22.1875 43.046875 
Q 18.109375 38.09375 18.109375 28.8125 
L 18.109375 0 
L 9.078125 0 
L 9.078125 54.6875 
L 18.109375 54.6875 
L 18.109375 46.1875 
Q 20.953125 51.171875 25.484375 53.578125 
Q 30.03125 56 36.53125 56 
Q 37.453125 56 38.578125 55.875 
Q 39.703125 55.765625 41.0625 55.515625 
z
" id="DejaVuSans-72"/>
      <path d="M 45.40625 46.390625 
L 45.40625 75.984375 
L 54.390625 75.984375 
L 54.390625 0 
L 45.40625 0 
L 45.40625 8.203125 
Q 42.578125 3.328125 38.25 0.953125 
Q 33.9375 -1.421875 27.875 -1.421875 
Q 17.96875 -1.421875 11.734375 6.484375 
Q 5.515625 14.40625 5.515625 27.296875 
Q 5.515625 40.1875 11.734375 48.09375 
Q 17.96875 56 27.875 56 
Q 33.9375 56 38.25 53.625 
Q 42.578125 51.265625 45.40625 46.390625 
z
M 14.796875 27.296875 
Q 14.796875 17.390625 18.875 11.75 
Q 22.953125 6.109375 30.078125 6.109375 
Q 37.203125 6.109375 41.296875 11.75 
Q 45.40625 17.390625 45.40625 27.296875 
Q 45.40625 37.203125 41.296875 42.84375 
Q 37.203125 48.484375 30.078125 48.484375 
Q 22.953125 48.484375 18.875 42.84375 
Q 14.796875 37.203125 14.796875 27.296875 
z
" id="DejaVuSans-64"/>
     </defs>
     <g transform="translate(94.485 73.865938)scale(0.06 -0.06)">
      <use xlink:href="#DejaVuSans-72"/>
      <use x="41.082031" xlink:href="#DejaVuSans-65"/>
      <use x="102.605469" xlink:href="#DejaVuSans-73"/>
      <use x="154.705078" xlink:href="#DejaVuSans-69"/>
      <use x="182.488281" xlink:href="#DejaVuSans-64"/>
      <use x="245.964844" xlink:href="#DejaVuSans-75"/>
      <use x="309.34375" xlink:href="#DejaVuSans-61"/>
      <use x="370.623047" xlink:href="#DejaVuSans-6c"/>
      <use x="398.40625" xlink:href="#DejaVuSans-73"/>
     </g>
    </g>
   </g>
   <g id="matplotlib.axis_4">
    <g id="ytick_8">
     <g id="line2d_14">
      <path clip-path="url(#p4a627ae24d)" d="M 72 39.306122 
L 144 39.306122 
" style="fill:none;stroke:#ffffff;stroke-linecap:square;"/>
     </g>
     <g id="line2d_15">
      <g>
       <use style="stroke:#000000;stroke-width:0.8;" x="72" xlink:href="#mca9b6be568" y="39.306122"/>
      </g>
     </g>
     <g id="text_19">
      <!-- 5 -->
      <g transform="translate(62.6825 41.585654)scale(0.06 -0.06)">
       <use xlink:href="#DejaVuSans-35"/>
      </g>
     </g>
    </g>
    <g id="ytick_9">
     <g id="line2d_16">
      <path clip-path="url(#p4a627ae24d)" d="M 72 24.612245 
L 144 24.612245 
" style="fill:none;stroke:#ffffff;stroke-linecap:square;"/>
     </g>
     <g id="line2d_17">
      <g>
       <use style="stroke:#000000;stroke-width:0.8;" x="72" xlink:href="#mca9b6be568" y="24.612245"/>
      </g>
     </g>
     <g id="text_20">
      <!-- 10 -->
      <g transform="translate(58.865 26.891776)scale(0.06 -0.06)">
       <use xlink:href="#DejaVuSans-31"/>
       <use x="63.623047" xlink:href="#DejaVuSans-30"/>
      </g>
     </g>
    </g>
   </g>
   <g id="text_21">
    <!-- frequency -->
    <defs>
     <path d="M 37.109375 75.984375 
L 37.109375 68.5 
L 28.515625 68.5 
Q 23.6875 68.5 21.796875 66.546875 
Q 19.921875 64.59375 19.921875 59.515625 
L 19.921875 54.6875 
L 34.71875 54.6875 
L 34.71875 47.703125 
L 19.921875 47.703125 
L 19.921875 0 
L 10.890625 0 
L 10.890625 47.703125 
L 2.296875 47.703125 
L 2.296875 54.6875 
L 10.890625 54.6875 
L 10.890625 58.5 
Q 10.890625 67.625 15.140625 71.796875 
Q 19.390625 75.984375 28.609375 75.984375 
z
" id="DejaVuSans-66"/>
     <path d="M 14.796875 27.296875 
Q 14.796875 17.390625 18.875 11.75 
Q 22.953125 6.109375 30.078125 6.109375 
Q 37.203125 6.109375 41.296875 11.75 
Q 45.40625 17.390625 45.40625 27.296875 
Q 45.40625 37.203125 41.296875 42.84375 
Q 37.203125 48.484375 30.078125 48.484375 
Q 22.953125 48.484375 18.875 42.84375 
Q 14.796875 37.203125 14.796875 27.296875 
z
M 45.40625 8.203125 
Q 42.578125 3.328125 38.25 0.953125 
Q 33.9375 -1.421875 27.875 -1.421875 
Q 17.96875 -1.421875 11.734375 6.484375 
Q 5.515625 14.40625 5.515625 27.296875 
Q 5.515625 40.1875 11.734375 48.09375 
Q 17.96875 56 27.875 56 
Q 33.9375 56 38.25 53.625 
Q 42.578125 51.265625 45.40625 46.390625 
L 45.40625 54.6875 
L 54.390625 54.6875 
L 54.390625 -20.796875 
L 45.40625 -20.796875 
z
" id="DejaVuSans-71"/>
     <path d="M 32.171875 -5.078125 
Q 28.375 -14.84375 24.75 -17.8125 
Q 21.140625 -20.796875 15.09375 -20.796875 
L 7.90625 -20.796875 
L 7.90625 -13.28125 
L 13.1875 -13.28125 
Q 16.890625 -13.28125 18.9375 -11.515625 
Q 21 -9.765625 23.484375 -3.21875 
L 25.09375 0.875 
L 2.984375 54.6875 
L 12.5 54.6875 
L 29.59375 11.921875 
L 46.6875 54.6875 
L 56.203125 54.6875 
z
" id="DejaVuSans-79"/>
    </defs>
    <g transform="translate(41.775 16.775625)scale(0.06 -0.06)">
     <use xlink:href="#DejaVuSans-66"/>
     <use x="35.205078" xlink:href="#DejaVuSans-72"/>
     <use x="76.287109" xlink:href="#DejaVuSans-65"/>
     <use x="137.810547" xlink:href="#DejaVuSans-71"/>
     <use x="201.287109" xlink:href="#DejaVuSans-75"/>
     <use x="264.666016" xlink:href="#DejaVuSans-65"/>
     <use x="326.189453" xlink:href="#DejaVuSans-6e"/>
     <use x="389.568359" xlink:href="#DejaVuSans-63"/>
     <use x="444.548828" xlink:href="#DejaVuSans-79"/>
    </g>
   </g>
  </g>
 </g>
 <defs>
  <clipPath id="pe55982817f">
   <rect height="140.4" width="198" x="64.8" y="32.4"/>
  </clipPath>
  <clipPath id="p4a627ae24d">
   <rect height="43.2" width="72" x="72" y="10.8"/>
  </clipPath>
 </defs>
</svg>
